<?xml version="1.0" encoding="UTF-8"?>
<svg xmlns="http://www.w3.org/2000/svg" xmlns:xlink="http://www.w3.org/1999/xlink" contentScriptType="text/ecmascript" width="375" zoomAndPan="magnify" contentStyleType="text/css" viewBox="0 0 375 374.999991" height="374.999991" preserveAspectRatio="xMidYMid meet" version="1.0">
    <defs>
        <clipPath id="clip-0">
            <path d="M 112.5 118.230469 L 262.5 118.230469 L 262.5 268.230469 L 112.5 268.230469 Z M 112.5 118.230469 " clip-rule="nonzero" />
        </clipPath>
        <clipPath id="clip-1">
            <path d="M 148.5 112.5 L 226.5 112.5 L 226.5 262.5 L 148.5 262.5 Z M 148.5 112.5 " clip-rule="nonzero" />
        </clipPath>
    </defs>
    <rect x="-37.5" width="450" fill="rgb(100%, 100%, 100%)" y="-37.499999" height="449.999989" fill-opacity="1" />
    <rect x="-37.5" width="450" fill="rgb(100%, 100%, 100%)" y="-37.499999" height="449.999989" fill-opacity="1" />
    <rect x="-37.5" width="450" fill="rgb(100%, 100%, 100%)" y="-37.499999" height="449.999989" fill-opacity="1" />
    <g clip-path="url(#clip-0)">
        <path fill="rgb(100%, 100%, 100%)" d="M 187.46875 131.753906 C 207.484375 131.753906 209.847656 131.820312 217.769531 132.179688 C 225.066406 132.507812 229.042969 133.726562 231.703125 134.777344 C 235.1875 136.125 237.6875 137.769531 240.316406 140.398438 C 242.945312 143.027344 244.554688 145.523438 245.9375 149.007812 C 246.953125 151.636719 248.171875 155.613281 248.53125 162.941406 C 248.894531 170.863281 248.960938 173.230469 248.960938 193.246094 C 248.960938 213.261719 248.894531 215.628906 248.53125 223.546875 C 248.203125 230.84375 246.988281 234.820312 245.9375 237.484375 C 244.589844 240.96875 242.945312 243.464844 240.316406 246.09375 C 237.6875 248.722656 235.1875 250.332031 231.703125 251.714844 C 229.074219 252.734375 225.097656 253.949219 217.769531 254.308594 C 209.847656 254.671875 207.484375 254.738281 187.46875 254.738281 C 167.453125 254.738281 165.085938 254.671875 157.164062 254.308594 C 149.867188 253.980469 145.890625 252.765625 143.230469 251.714844 C 139.746094 250.367188 137.246094 248.722656 134.617188 246.09375 C 131.988281 243.464844 130.378906 240.96875 129 237.484375 C 127.980469 234.855469 126.765625 230.878906 126.402344 223.546875 C 126.039062 215.628906 125.976562 213.261719 125.976562 193.246094 C 125.976562 173.230469 126.039062 170.863281 126.402344 162.941406 C 126.730469 155.648438 127.945312 151.671875 129 149.007812 C 130.347656 145.523438 131.988281 143.027344 134.617188 140.398438 C 137.246094 137.769531 139.746094 136.15625 143.230469 134.777344 C 145.859375 133.757812 149.835938 132.542969 157.164062 132.179688 C 165.085938 131.820312 167.453125 131.753906 187.46875 131.753906 M 187.46875 118.246094 C 167.089844 118.246094 164.558594 118.34375 156.539062 118.707031 C 148.554688 119.066406 143.097656 120.347656 138.332031 122.191406 C 133.402344 124.097656 129.230469 126.660156 125.054688 130.832031 C 120.914062 135.007812 118.351562 139.179688 116.445312 144.109375 C 114.601562 148.875 113.320312 154.332031 112.960938 162.320312 C 112.597656 170.304688 112.5 172.867188 112.5 193.210938 C 112.5 213.589844 112.597656 216.121094 112.960938 224.140625 C 113.320312 232.125 114.601562 237.582031 116.445312 242.347656 C 118.351562 247.277344 120.914062 251.449219 125.085938 255.625 C 129.261719 259.800781 133.4375 262.363281 138.367188 264.269531 C 143.132812 266.109375 148.585938 267.390625 156.574219 267.753906 C 164.558594 268.113281 167.125 268.210938 187.5 268.210938 C 207.875 268.210938 210.40625 268.113281 218.425781 267.753906 C 226.414062 267.390625 231.867188 266.109375 236.632812 264.269531 C 241.5625 262.363281 245.738281 259.800781 249.914062 255.625 C 254.085938 251.449219 256.648438 247.277344 258.554688 242.347656 C 260.398438 237.582031 261.679688 232.125 262.039062 224.140625 C 262.402344 216.152344 262.5 213.589844 262.5 193.210938 C 262.5 172.835938 262.402344 170.304688 262.039062 162.285156 C 261.679688 154.300781 260.398438 148.84375 258.554688 144.078125 C 256.648438 139.148438 254.085938 134.972656 249.914062 130.800781 C 245.738281 126.625 241.5625 124.0625 236.632812 122.15625 C 231.867188 120.316406 226.414062 119.035156 218.425781 118.671875 C 210.40625 118.34375 207.84375 118.246094 187.46875 118.246094 " fill-opacity="1" fill-rule="nonzero" />
    </g>
    <path fill="rgb(100%, 100%, 100%)" d="M 187.46875 154.726562 C 166.203125 154.726562 148.980469 171.949219 148.980469 193.210938 C 148.980469 214.476562 166.234375 231.730469 187.5 231.730469 C 208.765625 231.730469 226.019531 214.511719 226.019531 193.210938 C 225.984375 171.949219 208.730469 154.726562 187.46875 154.726562 M 187.46875 218.222656 C 173.664062 218.222656 162.488281 207.050781 162.488281 193.246094 C 162.488281 179.441406 173.664062 168.265625 187.46875 168.265625 C 201.269531 168.265625 212.445312 179.441406 212.445312 193.246094 C 212.476562 207.015625 201.269531 218.222656 187.46875 218.222656 " fill-opacity="1" fill-rule="nonzero" />
    <path fill="rgb(100%, 100%, 100%)" d="M 236.503906 153.214844 C 236.503906 158.175781 232.460938 162.21875 227.496094 162.21875 C 222.535156 162.21875 218.492188 158.175781 218.492188 153.214844 C 218.492188 148.253906 222.535156 144.210938 227.496094 144.210938 C 232.460938 144.210938 236.503906 148.21875 236.503906 153.214844 " fill-opacity="1" fill-rule="nonzero" />
    <g clip-path="url(#clip-1)">
        <path fill="rgb(29.40979%, 21.958923%, 41.178894%)" d="M 222.082031 194.085938 L 225.519531 167.421875 L 199.113281 167.421875 L 199.113281 150.394531 C 199.113281 142.675781 201.269531 137.414062 212.335938 137.414062 L 226.445312 137.40625 L 226.445312 113.558594 C 224.007812 113.234375 215.636719 112.507812 205.875 112.507812 C 185.515625 112.507812 171.585938 124.9375 171.585938 147.757812 L 171.585938 167.421875 L 148.554688 167.421875 L 148.554688 194.085938 L 171.585938 194.085938 L 171.585938 262.503906 L 199.113281 262.503906 L 199.113281 194.085938 Z M 222.082031 194.085938 " fill-opacity="1" fill-rule="nonzero" />
    </g>
</svg>