<?xml version="1.0" encoding="UTF-8"?>
<svg xmlns="http://www.w3.org/2000/svg" xmlns:xlink="http://www.w3.org/1999/xlink" contentScriptType="text/ecmascript" width="375" zoomAndPan="magnify" contentStyleType="text/css" viewBox="0 0 375 374.999991" height="374.999991" preserveAspectRatio="xMidYMid meet" version="1.0">
    <defs>
        <clipPath id="clip-0">
            <path d="M 112.5 118.230469 L 262.5 118.230469 L 262.5 268.230469 L 112.5 268.230469 Z M 112.5 118.230469 " clip-rule="nonzero" />
        </clipPath>
        <clipPath id="clip-1">
            <path d="M 112.5 106.707031 L 262.5 106.707031 L 262.5 253.707031 L 112.5 253.707031 Z M 112.5 106.707031 " clip-rule="nonzero" />
        </clipPath>
    </defs>
    <rect x="-37.5" width="450" fill="rgb(100%, 100%, 100%)" y="-37.499999" height="449.999989" fill-opacity="1" />
    <rect x="-37.5" width="450" fill="rgb(100%, 100%, 100%)" y="-37.499999" height="449.999989" fill-opacity="1" />
    <rect x="-37.5" width="450" fill="rgb(100%, 100%, 100%)" y="-37.499999" height="449.999989" fill-opacity="1" />
    <g clip-path="url(#clip-0)">
        <path fill="rgb(100%, 100%, 100%)" d="M 187.46875 131.753906 C 207.484375 131.753906 209.847656 131.820312 217.769531 132.179688 C 225.066406 132.507812 229.042969 133.726562 231.703125 134.777344 C 235.1875 136.125 237.6875 137.769531 240.316406 140.398438 C 242.945312 143.027344 244.554688 145.523438 245.9375 149.007812 C 246.953125 151.636719 248.171875 155.613281 248.53125 162.941406 C 248.894531 170.863281 248.960938 173.230469 248.960938 193.246094 C 248.960938 213.261719 248.894531 215.628906 248.53125 223.546875 C 248.203125 230.84375 246.988281 234.820312 245.9375 237.484375 C 244.589844 240.96875 242.945312 243.464844 240.316406 246.09375 C 237.6875 248.722656 235.1875 250.332031 231.703125 251.714844 C 229.074219 252.734375 225.097656 253.949219 217.769531 254.308594 C 209.847656 254.671875 207.484375 254.738281 187.46875 254.738281 C 167.453125 254.738281 165.085938 254.671875 157.164062 254.308594 C 149.867188 253.980469 145.890625 252.765625 143.230469 251.714844 C 139.746094 250.367188 137.246094 248.722656 134.617188 246.09375 C 131.988281 243.464844 130.378906 240.96875 129 237.484375 C 127.980469 234.855469 126.765625 230.878906 126.402344 223.546875 C 126.039062 215.628906 125.976562 213.261719 125.976562 193.246094 C 125.976562 173.230469 126.039062 170.863281 126.402344 162.941406 C 126.730469 155.648438 127.945312 151.671875 129 149.007812 C 130.347656 145.523438 131.988281 143.027344 134.617188 140.398438 C 137.246094 137.769531 139.746094 136.15625 143.230469 134.777344 C 145.859375 133.757812 149.835938 132.542969 157.164062 132.179688 C 165.085938 131.820312 167.453125 131.753906 187.46875 131.753906 M 187.46875 118.246094 C 167.089844 118.246094 164.558594 118.34375 156.539062 118.707031 C 148.554688 119.066406 143.097656 120.347656 138.332031 122.191406 C 133.402344 124.097656 129.230469 126.660156 125.054688 130.832031 C 120.914062 135.007812 118.351562 139.179688 116.445312 144.109375 C 114.601562 148.875 113.320312 154.332031 112.960938 162.320312 C 112.597656 170.304688 112.5 172.867188 112.5 193.210938 C 112.5 213.589844 112.597656 216.121094 112.960938 224.140625 C 113.320312 232.125 114.601562 237.582031 116.445312 242.347656 C 118.351562 247.277344 120.914062 251.449219 125.085938 255.625 C 129.261719 259.800781 133.4375 262.363281 138.367188 264.269531 C 143.132812 266.109375 148.585938 267.390625 156.574219 267.753906 C 164.558594 268.113281 167.125 268.210938 187.5 268.210938 C 207.875 268.210938 210.40625 268.113281 218.425781 267.753906 C 226.414062 267.390625 231.867188 266.109375 236.632812 264.269531 C 241.5625 262.363281 245.738281 259.800781 249.914062 255.625 C 254.085938 251.449219 256.648438 247.277344 258.554688 242.347656 C 260.398438 237.582031 261.679688 232.125 262.039062 224.140625 C 262.402344 216.152344 262.5 213.589844 262.5 193.210938 C 262.5 172.835938 262.402344 170.304688 262.039062 162.285156 C 261.679688 154.300781 260.398438 148.84375 258.554688 144.078125 C 256.648438 139.148438 254.085938 134.972656 249.914062 130.800781 C 245.738281 126.625 241.5625 124.0625 236.632812 122.15625 C 231.867188 120.316406 226.414062 119.035156 218.425781 118.671875 C 210.40625 118.34375 207.84375 118.246094 187.46875 118.246094 " fill-opacity="1" fill-rule="nonzero" />
    </g>
    <path fill="rgb(100%, 100%, 100%)" d="M 187.46875 154.726562 C 166.203125 154.726562 148.980469 171.949219 148.980469 193.210938 C 148.980469 214.476562 166.234375 231.730469 187.5 231.730469 C 208.765625 231.730469 226.019531 214.511719 226.019531 193.210938 C 225.984375 171.949219 208.730469 154.726562 187.46875 154.726562 M 187.46875 218.222656 C 173.664062 218.222656 162.488281 207.050781 162.488281 193.246094 C 162.488281 179.441406 173.664062 168.265625 187.46875 168.265625 C 201.269531 168.265625 212.445312 179.441406 212.445312 193.246094 C 212.476562 207.015625 201.269531 218.222656 187.46875 218.222656 " fill-opacity="1" fill-rule="nonzero" />
    <path fill="rgb(100%, 100%, 100%)" d="M 236.503906 153.214844 C 236.503906 158.175781 232.460938 162.21875 227.496094 162.21875 C 222.535156 162.21875 218.492188 158.175781 218.492188 153.214844 C 218.492188 148.253906 222.535156 144.210938 227.496094 144.210938 C 232.460938 144.210938 236.503906 148.21875 236.503906 153.214844 " fill-opacity="1" fill-rule="nonzero" />
    <g clip-path="url(#clip-1)">
        <path fill="rgb(29.40979%, 21.958923%, 41.178894%)" d="M 187.5 106.761719 C 146.085938 106.761719 112.5 140.339844 112.5 181.761719 C 112.5 214.902344 133.988281 243.015625 163.789062 252.929688 C 167.539062 253.625 168.914062 251.300781 168.914062 249.320312 C 168.914062 247.53125 168.84375 241.625 168.8125 235.355469 C 147.949219 239.898438 143.542969 226.507812 143.542969 226.507812 C 140.132812 217.835938 135.214844 215.535156 135.214844 215.535156 C 128.414062 210.882812 135.730469 210.976562 135.730469 210.976562 C 143.261719 211.503906 147.226562 218.703125 147.226562 218.703125 C 153.917969 230.171875 164.773438 226.855469 169.050781 224.9375 C 169.726562 220.09375 171.667969 216.78125 173.8125 214.90625 C 157.15625 213.015625 139.644531 206.582031 139.644531 177.847656 C 139.644531 169.65625 142.574219 162.964844 147.371094 157.714844 C 146.59375 155.824219 144.023438 148.195312 148.097656 137.863281 C 148.097656 137.863281 154.394531 135.847656 168.726562 145.554688 C 174.707031 143.890625 181.125 143.058594 187.5 143.03125 C 193.875 143.058594 200.296875 143.890625 206.289062 145.554688 C 220.605469 135.847656 226.890625 137.863281 226.890625 137.863281 C 230.976562 148.195312 228.410156 155.824219 227.628906 157.714844 C 232.433594 162.964844 235.347656 169.65625 235.347656 177.847656 C 235.347656 206.652344 217.804688 212.992188 201.097656 214.847656 C 203.789062 217.175781 206.191406 221.738281 206.191406 228.742188 C 206.191406 238.773438 206.105469 246.851562 206.105469 249.320312 C 206.105469 251.316406 207.453125 253.65625 211.253906 252.917969 C 241.035156 242.992188 262.5 214.890625 262.5 181.761719 C 262.5 140.339844 228.917969 106.761719 187.5 106.761719 Z M 140.589844 213.601562 C 140.425781 213.976562 139.839844 214.085938 139.304688 213.828125 C 138.761719 213.582031 138.457031 213.078125 138.632812 212.703125 C 138.792969 212.316406 139.378906 212.210938 139.921875 212.46875 C 140.46875 212.714844 140.777344 213.226562 140.589844 213.601562 Z M 144.28125 216.894531 C 143.921875 217.222656 143.222656 217.070312 142.746094 216.546875 C 142.257812 216.019531 142.164062 215.324219 142.527344 214.988281 C 142.898438 214.65625 143.574219 214.8125 144.066406 215.335938 C 144.558594 215.863281 144.652344 216.558594 144.28125 216.894531 Z M 146.808594 221.105469 C 146.351562 221.421875 145.597656 221.125 145.136719 220.457031 C 144.675781 219.789062 144.675781 218.992188 145.144531 218.667969 C 145.609375 218.347656 146.351562 218.640625 146.820312 219.300781 C 147.28125 219.976562 147.28125 220.777344 146.808594 221.105469 Z M 151.089844 225.980469 C 150.679688 226.433594 149.804688 226.316406 149.164062 225.695312 C 148.507812 225.089844 148.324219 224.230469 148.738281 223.777344 C 149.152344 223.328125 150.035156 223.449219 150.679688 224.066406 C 151.328125 224.667969 151.527344 225.535156 151.089844 225.980469 Z M 156.621094 227.628906 C 156.441406 228.214844 155.597656 228.484375 154.75 228.230469 C 153.898438 227.980469 153.34375 227.289062 153.515625 226.695312 C 153.691406 226.105469 154.539062 225.824219 155.394531 226.09375 C 156.242188 226.351562 156.800781 227.03125 156.621094 227.628906 Z M 162.917969 228.324219 C 162.9375 228.945312 162.21875 229.457031 161.328125 229.46875 C 160.429688 229.492188 159.703125 228.988281 159.695312 228.378906 C 159.695312 227.757812 160.398438 227.246094 161.296875 227.234375 C 162.1875 227.21875 162.917969 227.710938 162.917969 228.324219 Z M 169.101562 228.089844 C 169.210938 228.695312 168.589844 229.316406 167.703125 229.480469 C 166.832031 229.636719 166.027344 229.261719 165.917969 228.664062 C 165.808594 228.050781 166.441406 227.429688 167.308594 227.269531 C 168.195312 227.113281 168.988281 227.476562 169.101562 228.089844 Z M 169.101562 228.089844 " fill-opacity="1" fill-rule="nonzero" />
    </g>
</svg>