<svg width="18" height="33" viewBox="0 0 18 33" fill="none" xmlns="http://www.w3.org/2000/svg">
    <g id="lapki-down">
        <path className="quote-text" id="lapka" d="M3.996 28.896L0.864 27.312C1.656 26.916 2.358 26.46 2.97 25.944C3.582 25.428 3.984 24.84 4.176 24.18C3.516 24.048 2.946 23.772 2.466 23.352C1.998 22.932 1.764 22.38 1.764 21.696C1.764 20.976 2.04 20.37 2.592 19.878C3.144 19.386 3.84 19.14 4.68 19.14C5.748 19.14 6.582 19.512 7.182 20.256C7.794 21 8.1 21.882 8.1 22.902C8.1 24.066 7.734 25.194 7.002 26.286C6.27 27.39 5.268 28.26 3.996 28.896Z" fill="#653AAB" fill-opacity="0.69" />
        <path className="quote-text" id="lapka_2" d="M11.996 28.896L8.864 27.312C9.656 26.916 10.358 26.46 10.97 25.944C11.582 25.428 11.984 24.84 12.176 24.18C11.516 24.048 10.946 23.772 10.466 23.352C9.998 22.932 9.764 22.38 9.764 21.696C9.764 20.976 10.04 20.37 10.592 19.878C11.144 19.386 11.84 19.14 12.68 19.14C13.748 19.14 14.582 19.512 15.182 20.256C15.794 21 16.1 21.882 16.1 22.902C16.1 24.066 15.734 25.194 15.002 26.286C14.27 27.39 13.268 28.26 11.996 28.896Z" fill="#653AAB" fill-opacity="0.69" />
    </g>
</svg>