<svg width="18" height="38" viewBox="0 0 18 38" fill="none" xmlns="http://www.w3.org/2000/svg">
    <g id="lapki-up">
        <path className="quote-text" id="lapka" d="M14.004 4.104L17.136 5.688C16.344 6.084 15.642 6.54 15.03 7.056C14.418 7.572 14.016 8.16 13.824 8.82C14.484 8.952 15.054 9.228 15.534 9.648C16.002 10.068 16.236 10.62 16.236 11.304C16.236 12.024 15.96 12.63 15.408 13.122C14.856 13.614 14.16 13.86 13.32 13.86C12.252 13.86 11.418 13.488 10.818 12.744C10.206 12 9.9 11.118 9.9 10.098C9.9 8.934 10.266 7.806 10.998 6.714C11.73 5.61 12.732 4.74 14.004 4.104Z" fill="#653AAB" fill-opacity="0.69" />
        <path className="quote-text" id="lapka_2" d="M6.004 4.104L9.136 5.688C8.344 6.084 7.642 6.54 7.03 7.056C6.418 7.572 6.016 8.16 5.824 8.82C6.484 8.952 7.054 9.228 7.534 9.648C8.002 10.068 8.236 10.62 8.236 11.304C8.236 12.024 7.96 12.63 7.408 13.122C6.856 13.614 6.16 13.86 5.32 13.86C4.252 13.86 3.418 13.488 2.818 12.744C2.206 12 1.9 11.118 1.9 10.098C1.9 8.934 2.266 7.806 2.998 6.714C3.73 5.61 4.732 4.74 6.004 4.104Z" fill="#653AAB" fill-opacity="0.69" />
    </g>
</svg>